<?xml version="1.0" encoding="UTF-8" standalone="no"?>
<svg
   xmlns:dc="http://purl.org/dc/elements/1.1/"
   xmlns:cc="http://creativecommons.org/ns#"
   xmlns:rdf="http://www.w3.org/1999/02/22-rdf-syntax-ns#"
   xmlns:svg="http://www.w3.org/2000/svg"
   xmlns="http://www.w3.org/2000/svg"
   xmlns:sodipodi="http://sodipodi.sourceforge.net/DTD/sodipodi-0.dtd"
   xmlns:inkscape="http://www.inkscape.org/namespaces/inkscape"
   version="1.1"
   x="0px"
   y="0px"
   viewBox="0 0 100 125"
   enable-background="new 0 0 100 100"
   xml:space="preserve"
   id="svg2"
   inkscape:version="0.48.5 r10040"
   width="100%"
   height="100%"
   sodipodi:docname="cd-icon-desktop.svg"><metadata
     id="metadata14"><rdf:RDF><cc:Work
         rdf:about=""><dc:format>image/svg+xml</dc:format><dc:type
           rdf:resource="http://purl.org/dc/dcmitype/StillImage" /></cc:Work></rdf:RDF></metadata><defs
     id="defs12" /><sodipodi:namedview
     pagecolor="#ffffff"
     bordercolor="#666666"
     borderopacity="1"
     objecttolerance="10"
     gridtolerance="10"
     guidetolerance="10"
     inkscape:pageopacity="0"
     inkscape:pageshadow="2"
     inkscape:window-width="640"
     inkscape:window-height="480"
     id="namedview10"
     showgrid="false"
     inkscape:zoom="1.888"
     inkscape:cx="50"
     inkscape:cy="62.5"
     inkscape:window-x="0"
     inkscape:window-y="0"
     inkscape:window-maximized="0"
     inkscape:current-layer="svg2" /><path
     d="m 91.027661,24.355864 h -80.992 c -2.486,0 -4.506,2.017 -4.506,4.506 v 59.327 c 0,2.487 2.02,4.507 4.506,4.507 h 26.181 l -1.081,6.089 h -6.937 c -0.809,0 -1.466,0.655 -1.466,1.461996 0,0.811 0.657,1.466 1.466,1.466 h 44.663 c 0.809,0 1.463,-0.655 1.463,-1.466 0,-0.806996 -0.654,-1.461996 -1.463,-1.461996 h -6.936 l -1.08,-6.089 h 26.182 c 2.486,0 4.504,-2.02 4.504,-4.507 v -59.327 c 0,-2.489 -2.018,-4.506 -4.504,-4.506 z m -44.03,61.626 c 0,-1.948 1.581,-3.531 3.533,-3.531 1.952,0 3.53,1.583 3.53,3.531 0,1.948 -1.578,3.53 -3.53,3.53 -1.952,0 -3.533,-1.582 -3.533,-3.53 z m 42.235,-7.086 h -77.402 v -47.5 h 77.402 v 47.5 z"
     id="path4"
     inkscape:connector-curvature="0"
     style="fill:#000000" /></svg>