<?xml version="1.0" encoding="UTF-8" standalone="no"?>
<svg
   xmlns:dc="http://purl.org/dc/elements/1.1/"
   xmlns:cc="http://creativecommons.org/ns#"
   xmlns:rdf="http://www.w3.org/1999/02/22-rdf-syntax-ns#"
   xmlns:svg="http://www.w3.org/2000/svg"
   xmlns="http://www.w3.org/2000/svg"
   xmlns:sodipodi="http://sodipodi.sourceforge.net/DTD/sodipodi-0.dtd"
   xmlns:inkscape="http://www.inkscape.org/namespaces/inkscape"
   version="1.1"
   x="0px"
   y="0px"
   viewBox="0 0 100 125"
   enable-background="new 0 0 100 100"
   xml:space="preserve"
   id="svg2"
   inkscape:version="0.48.5 r10040"
   width="100%"
   height="100%"
   sodipodi:docname="noun_123955_cc.svg"><metadata
     id="metadata14"><rdf:RDF><cc:Work
         rdf:about=""><dc:format>image/svg+xml</dc:format><dc:type
           rdf:resource="http://purl.org/dc/dcmitype/StillImage" /></cc:Work></rdf:RDF></metadata><defs
     id="defs12" /><sodipodi:namedview
     pagecolor="#ffffff"
     bordercolor="#666666"
     borderopacity="1"
     objecttolerance="10"
     gridtolerance="10"
     guidetolerance="10"
     inkscape:pageopacity="0"
     inkscape:pageshadow="2"
     inkscape:window-width="640"
     inkscape:window-height="480"
     id="namedview10"
     showgrid="false"
     inkscape:zoom="1.888"
     inkscape:cx="50"
     inkscape:cy="62.5"
     inkscape:window-x="0"
     inkscape:window-y="0"
     inkscape:window-maximized="0"
     inkscape:current-layer="svg2" /><path
     d="m 63.171661,17.632203 c -3.403,-0.456 -11.947,-0.45 -11.947,-0.45 h -0.598 c 0,0 -8.552,-0.006 -11.95,0.45 -5.94,0.808 -10.481,0.713 -10.481,12.19 0,3.884 0,62.091 0,67.835 0,5.747997 4.84,9.523997 11.216,9.523997 6.376,0 11.216,0 11.216,0 h 0.598 c 0,0 4.84,0 11.216,0 6.372,0 11.208,-3.776 11.208,-9.523997 0,-5.744 0,-63.951 0,-67.835 -10e-4,-11.476 -4.53,-11.382 -10.478,-12.19 z m -16.779,2.42 h 8.566 c 0.303,0 0.553,0.246 0.553,0.558 0,0.299 -0.25,0.552 -0.553,0.552 h -8.566 c -0.307,0 -0.557,-0.253 -0.557,-0.552 10e-4,-0.312 0.251,-0.558 0.557,-0.558 z m 9.622,83.303997 c 0,0.466 -0.382,0.855 -0.851,0.855 h -8.469 c -0.477,0 -0.859,-0.39 -0.859,-0.855 v -1.218 c 0,-0.466 0.383,-0.852 0.859,-0.852 h 8.469 c 0.469,0 0.851,0.386 0.851,0.852 v 1.218 z m 14.112,-8.168997 h -38.802 v -67.923 h 38.802 v 67.923 z"
     id="path4"
     inkscape:connector-curvature="0"
     style="fill:#000000" /></svg>